# xmcd
#
# Track frame offsets:
#	150
#	17087
#	27268
#	43670
#	57092
#	72107
#	96285
#	102732
#	114741
#	127659
#	140237
#	156302
#	175012
#	190975
#	207001
#	223473
#
# Disc length: 3189 seconds
#
# Revision: 0
# Processed by: cddbd v1.5.2PL0 Copyright (c) Steve Scherf et al.
# Submitted via: EZCDAudioConverter 8.1.1.1
#
DISCID=ee0c7310
DTITLE=H.E.R. - H.E.R. Vol 1&2+1
DYEAR=2019
DGENRE=R&B
TTITLE0=Losing
TTITLE1=Wait For It
TTITLE2=Facts
TTITLE3=U
TTITLE4=Focus
TTITLE5=Jungle
TTITLE6=Pigment
TTITLE7=Every Kind Of Way
TTITLE8=Say it Again
TTITLE9=Still Down
TTITLE10=Avenue
TTITLE11=Gone Away
TTITLE12=I Wont
TTITLE13=Changes
TTITLE14=Lights On
TTITLE15=Best Part (feat Daniel Caesar)
EXTD=
EXTT0=
EXTT1=
EXTT2=
EXTT3=
EXTT4=
EXTT5=
EXTT6=
EXTT7=
EXTT8=
EXTT9=
EXTT10=
EXTT11=
EXTT12=
EXTT13=
EXTT14=
EXTT15=
PLAYORDER=
